<svg id="Layer_1" data-name="Layer 1" xmlns="http://www.w3.org/2000/svg" width="5in" height="5in" viewBox="0 0 360 360"><path d="M68.4,47.6V280.1H300.9V47.6Zm228.4,4.2V193.7c-4-2.1-16.6-5.9-51.1,1.1-44.5,9-59.8-4-68.4-4s-21.6,10.7-30.1,10.7-25.7-4.5-46.4-12.6c-14.1-5.5-23.6-3.2-28.2,1.9V51.8Z" fill="#fff"/><circle cx="118.9" cy="141.8" r="9.5" fill="#fff"/><path d="M271,134.9a3.9,3.9,0,0,0,3.9-4,3.9,3.9,0,1,0-7.8,0A3.9,3.9,0,0,0,271,134.9Z" fill="#fff"/><circle cx="182" cy="107.8" r="15.2" transform="translate(-14.9 30.5) rotate(-9.2)" fill="#fff"/><circle cx="210.8" cy="155.2" r="7.5" fill="#fff"/></svg>