<svg xmlns="http://www.w3.org/2000/svg" width="1080" height="1080" viewBox="0 0 1080 1080"><path fill="#2a2a2a" d="M706.7 731.4s0 28.4-2.2 34.1-8.7 25.3-8.6 29.4-6.4 38.6-6.2 44.6-.9 34.8-2.2 36.2-5.7 19.3-1 14.4 7.2 4.8 3.6 8.6-3.6 4.1-3.5 6.7-7.7 13.6-3.6 17.5 7-1.1 7.1 3.8 8 9.4 9.3 2.9 5.5-7.6 5.6-2.4 6.7 8.1 6.6 1.7 5-.9 9.3-1 9.6-4.8 9.4-11.5-3.8-19.3-.7-31.4 4.9-55.3 4.9-55.3-.2-30.3 3.2-33.9 14.8 49.5 18.1 52.7c0 0-1.9.4 1.6 3.8s3.3 10.7 3.3 10.7 21.7 81.3 80.5 44.8c0 0 13.7-15.6 21.7-64.1s3.5-49.3 6.4-64.6 8.5-52 8.5-52-.1-21.1 2.5-23.8 5.3-15.4 5.2-18.9 5.7-11.9 3.3-14.2-8.2 1.9-9.1 3-3.2 2.8-3.4-1.9a34.2 34.2 0 0 1 1.2-9.2s1.7-9-2.8-4.3-5.7 18.1-9.7 14.3-2.5-8.9-4.1-10.4-4.7-6.1-8.1 2.8-9.2 6.7-9.1 10.8-7.5 47.4-10.7 56.4-11.1 56.6-10.9 62.1-8.6 63.1-13.2 64.7-5.5 1.3-8.7-9.6-20.6-70.7-20.8-80.4-2.8-30.4-9-36.3l-9-8.5c-2.2-2.1-10.3-2.8-14.4 1.5s-28.6-5.7-28.6-5.7-9.1 6.6-10.9 3.5-6.1 3.3-.8 8.4zm-94 16.7s-1.7-9.5-9.7-9.3c0 0-12-11.7-12.1-16.6s-15.4-4.6-15.4-4.6-1.6 1.2-4.4-4.2-.9-4.7-2.9-2.6-9.7-10.7-15.2-10.5-6.3 4.6-9.5 1.6-1.7-11.7-9.7-8.2a54 54 0 0 1-16.8 3.7l-6.6 8.2s-27.1 17.2-50.8 101.8c-9.3 33.2-17.3 131.4 50.1 123.9s99.5-99.1 99.5-99.1 19.1-48.6 3.5-84.1zm-53.3 72.7c-7.5 14.4-32.2 59.8-37.8 65.7s-20.6 21.6-21 6.4 8-80.9 18.1-100.6 8-27.9 9.8-29.8 12.5-26.1 20.9-28.4c0 0 19.9 17.1 20.1 24.1s-2.5 48.3-10.1 62.6zm-161.1-26.3c-3.5 1.6-4.9 1.1-4.5-1.2s2.8-1.5 4.4-5.1 3.6-3.9 4-6.2-6.5-1.3-10.5-2.1-2.8.4-1.2-4.4-1.8-1.7-4.2-.8-9.5 1.1-9.7 1.1c-1.7-.2-3.4 0-4.2 1.6-2 4-6.6 6.2-6.6 6.2-16.4 8.6-54.5 22.6-54.5 22.6s-19.9 4.8-23.3 8.4c-6.2 6.4 10.4 3.3 7.6 6.3s-12.9 2.6-12.8 4.5 8.3 3.4 11.6 4.7 7-1.7 13.4-.1 1.2 3 4 5.7 13.7.4 13.7.4-75.6 110.2-73 35.2 56.4-126.2 56.4-126.2 1.6 11.1 3.9 11 2.6 13.8 5.6 13.8 7.7 3.3 11.6 7 8.1-.2 10.1-.2 7.1 2.6 9.9 2.5 4.5-8.3 6.4-10.3-2.3-8.2-2.3-8.2-1.4-5.1 1.4-5.1 2.7-9.7 2.7-11.8a116.8 116.8 0 0 0-.9-11.9c-3.5-3.8-7.9-9.3-8-12.3-.1-4.9-15.4-4.5-15.4-4.5s-1.5 1.1-4.4-4.3-.8-4.7-2.8-2.6-9.8-10.6-15.3-10.5-6.2 4.7-9.5 1.6-1.6-11.7-9.7-8.2-20.2 17.4-20.2 17.4l-6.5 8.2s-27.1 17.2-50.8 101.8a28.1 28.1 0 0 0-.8 3.1c-1.8 7.9-3 15.3-3.9 22.2-3.5 29.4-1.9 68.9 18.1 87.9a45.9 45.9 0 0 0 17.8 9.7 55.1 55.1 0 0 0 18.9.9c17.8-2 33.2-9.9 46.2-20.4l.2-.2a156.5 156.5 0 0 0 11.9-11c16.5-17.4 28-38 34.5-51.9 2.4 1 6.8 3.3 6.9 6.5s.3 10.2 3.6 13.3-.7 3.2 3.7 7.3 3.9-3.8 2.8-8.3c-.5-2.4 5.5-4.1 5.5-4.1s0 2.3 4.1 6.3 5.6-3 5.5-7-4.1-15.7-4.3-24l-.7-28.2c-.1-2.4-2.3-5.2-5-7.9 2.3-.8 4.8-1.8 4.7-2.5s13.5-8 18.3-9.4-2.4-7.3-4.4-6.3zm454.4-207.1s-8-8.4-.7-3 5.1 2.3 5.1.2-9.4-8.9-14-13.2-6-5.8-9.9-11.3-7.9-14-11.7-19.2a97 97 0 0 0-10.8-12.2c-2.7-2.6-5.6-7.9-5.6-7.9s55.9-35.3 43.9-88.5-102-8.8-102-8.8a5.8 5.8 0 0 0-5.2 2.1 8.9 8.9 0 0 1-6.1 2.6h-4.5l-9.4 3.4s-10.7 3.3-10.6 7.5-7.9 8.3-7.9 8.3l-.2 5.2 3 2.9v3.7a21.9 21.9 0 0 0-1.2 5.5c.1 2 .5 3.2 2.5 3.1s1.5-1.5 4.5-1.6.1 3-1.4 3-4.3 2.2-5.9 3.9-3.1 3.3 3 2 7.1.9 7.1.9-4.3-1-5.1 18.4-13.3 70.7-13.3 70.7 3.4 16.5-1 26.2.7 26.2.7 26.2 1.7 5-.5 17.1 3 19.3 3 19.3c.5 2.3 1.8 2.7 2.7 3.6s3-3 3.7-3.8 2.9 4.7 5.3 4.6 2.1-7.7 4.4-10.1 2 1.9 3.9 1.9 1.1-6.5 1.9-7.4 7.3-.9 9.2.9-1.5 13.5 3.3 6.6 2.8-9.9 2.7-14.1 1.1-.1 3.2-2.3 2.9-18.9 2.9-18.9.8-18.9 3.3-23.6 1.7-5.2-.2-7 1.7-7 1.6-10.2 1.3-4.7 3.4-6.9 3.2-3.4 3.1-6.6 13.9-9.3 13.9-9.3 8.7 8.3 23.5 27.4 16.1 25.8 22.8 30.6 8.4 8 15.3 14.6 8.5-2.7 5.6-2.7-6-5.7-7-7.8.9-3.5 3-1.4 2.6-.1 3.9 1.1-.1 1.8 7 1.6 2.6-4.2 2.6-4.2a14.8 14.8 0 0 1-1.7-5.2c-.1-2.4 4.4-2.2 2.4-4.1s-1-4.6-.3-5.4 2.8 2.6 3.8 3.6 4.5-2.4 5-3 2.9.9 8.8 6.5 4.9 2.5 6.2 1.1-15-16.6-15-16.6zm-72.9-92.9S762.9 505 763 508.6s-8.7 8.4-8.7 8.4 3.6-13.5 3.5-17.2-1.9-14.8 1.2-18.1 4.7-20.3 4.7-20.3 6.6-6.3 14.8-8.8 10.9-2.6 13.4-5.3 41.9-9.6-12.1 47.2zm-159.6 25.6c-6 .2-10 5.5-10.2-1.7s7.9-11.4 3.3-11.3-8.9 2.7-10.5 2.7-2.9-2.4 1.8-4.9 5.6-3.7-2.2-3.5c0 0-8 1.2-8.1-.1s-5.2-35.3-4-39.5a24.8 24.8 0 0 0 1.1-8.9c0-2.2-2.4-8.9-2.4-8.9s2.5-6.1-1.9-6c0 0-6.3-18.7-12-22.3s-5.2-3-7-4.7c0 0-14.4 2-17.8-3.3s-12.5 2.2-12.5 2.2-1 5.2-5 5.3-11.2 13.4-12.5 14.7-3.9 6.9-13.3 21.3a84 84 0 0 0-6.9 14 199.2 199.2 0 0 1-8.9 19c-1.9 2-12 30.8-11.9 35s1.1 8-1.1 10.3-4.6 13.2-6.9 12.8c-6.4-1.1-8.2 4.5-11.6 4.6s-2.7 20.3-1.2 21.3 6.8 3.3 5.2 8.9c0 0-1.2 1.4-1.1 5.5a32.4 32.4 0 0 1-1.5 9.1l-.4 8.7-1.4 4-.4 4.3a17.2 17.2 0 0 0-.9 4.8c0 1.8-.4 8.8-.4 8.8l-1.4 6.7-2.7 8.7s-5.2 10.1-5.1 14.5 2.5 10.1 6 10 4.1.8 2.5 5.3 7.3.2 7.2-4.8 6.5-12.6 6.6-7.3 4.2 7.4 6.2 5.3 7.3-.8 8.5-9-1.6-1.9 3-10 8.7-20.9 8.6-25.3 7.4-38.2 12.4-43.4 41.2-22.4 44.4-22.5 5.6 27 4.2 28.5-1.7 34 9.2 52.5c0 0-4.6 5.6 3.4 8.2 0 0-2.8 10.3 3.9 8.1s5.4-5.2 7.3-1.6 4-8.1 3.2-11.1 9.7-2.3 9.8-.2.3 10.1 3.7 8.5 5.3-14.6 5.3-14.6-1.5-1.6 2-4.7 4.5-6.3 2.5-9.7 1.4-7.6-.5-10.8-7.6-18.8-6.4-22.8 1.9-8.2 1-10.5-1.6.7-.9-4.4-3.9-12.4-4-17.8-9.4-9.4-2.7-14.1 8.1-.8 12.3-2.9 19.2-11.1 13.1-11zm-69-5.9c-1.3 1.1-25.1 7.9-25.1 7.9s-5.8 4.2-2.3-1.8 10.4-19.3 10.3-23.3 4.7-4.1 4.7-4.1-2.9-.8-.1-5.8 6.6-15.2 6.6-15.2 2.8 3.7 1.6 10.1-1.2 7 .8 15.4 4.8 15.6 3.5 16.8zM413.5 404c2.1-2.2-9.6 2.5-8.1-9 1.2-8.6-57 13.6-64.5 18.5s-32.1 8.6-32.1 8.6-51.1 18.5-68.4 30.3-10.9 2.9-14.5 8.5c-1.8 2.8-3 .9-12 5.1s-7.7 3.7-8.6 8.9 3.6-.1 5.1 3.2-1.8 4.8.1 6.6-10.8 6.6-4.5 6.4 10.4-.6 10.5 2.3 2.9-1.5.7 7 12.4-1.2 12.4-1.2c19.2.4 18-3.6 25.2-8.7s4.1 1.4 4.1 1.4c-5.3 5.6-.8 13.9-.6 23.2s-10.2 38.6-9.9 48.6.5 26.4.5 26.4l-1.2 6.4-3.5 17.6-.7 7.9 2.1 12.4a1.7 1.7 0 0 0 2.8.9c2-2.2 4.8-4.7 4.9-.6.1 6.6-2.5 5.6-2.3 12.8s3.5 3.2 3.5 3.2 1.9-7.1 5-4.2-.8 6-2.2 18.9c-1.1 9.9 2.8 6.3 4.7 4.2a4 4 0 0 0 .7-1.5c.8-5.3 5.2-7.1 9.8-7.2s5.7-13.8 5.7-13.8.3-7.5 5.4-10.6 1.4 2 3.2 3.1 7.2-5.4 7.2-5.4a10.9 10.9 0 0 0 1.4-6.8c-.8-8-2.1-4.7-2.4-15.6-.2-9 1.9-22.8 3.7-35.5q.9-2.1 2.1-4.5c3.5-7.5 14.1-7.9 10.7-11.1s5.8-6.1 8.4-6.1 11.7-4.7 13.4-7.2 12.3-5.6 19.3-5.8 11.9-5.7 4.7-7.3c-5.1-1.1 5.6-2.1 9.8-6.5s-6.4-1.6-7.3-6.7.9-1.7 7.1-6.7c11.8-9.6 3-6.7-1.9-6.6s-4.3-.9.1-2.9c7.2-3.3 6.6-5.6 3-7.2 3.1-.1-5.5-4.2-6.7-2.9s-6 3.3-8.5 3.3-13.6 3.9-13.6 3.9-10.4 3-13.4 6.1-10.9 4.8-15.9 6.1a20.7 20.7 0 0 0 .8-4.8c-.2-4.9 5.9-20.4 5.8-24.4s3.8-5.2 3.8-8.5-2.4-6.5 6.9-8.3 12.8-7 18.6-7.1 17.9-4.7 20.3-7.2-2.6-5.3 5.2-5.5 14.6-10.9 17.5-11.2c6.3-.7 16 2.4 27.1-23.1 1.4-3.2-2.6-7.9-.5-10.1zm437.7-218.9s-1.7-9.4-9.7-9.2c0 0-12-11.7-12.1-16.6s-15.4-4.6-15.4-4.6-1.6 1.1-4.4-4.2-.9-4.7-2.8-2.6-9.8-10.7-15.3-10.5-6.3 4.6-9.5 1.5-1.7-11.6-9.7-8.1a52.3 52.3 0 0 1-16.8 3.6l-6.6 8.3s-27.1 17.2-50.8 101.8c-9.3 33.2-17.3 131.4 50.1 123.9s99.5-99.1 99.5-99.1 19.1-48.6 3.5-84.2zm-53.3 72.8c-7.5 14.4-32.2 59.8-37.8 65.7s-20.6 21.6-21 6.3 8-80.8 18.1-100.5 8-27.9 9.8-29.8 12.5-26.1 20.9-28.4c0 0 19.9 17.1 20.1 24.1s-2.5 48.3-10.1 62.6zm-179.8-68.7s-1.8-9.5-9.8-9.3c0 0-12-11.6-12.1-16.6s-15.4-4.6-15.4-4.6-1.5 1.2-4.4-4.2-.8-4.7-2.8-2.6-9.8-10.7-15.3-10.5-6.2 4.6-9.4 1.6-1.7-11.7-9.8-8.2a54 54 0 0 1-16.8 3.7l-6.5 8.2s-27.1 17.2-50.8 101.8c-9.4 33.2-17.4 131.4 50 123.9s99.5-99.1 99.5-99.1 19.2-48.6 3.6-84.1zm-53.3 72.7c-7.6 14.4-32.3 59.8-37.9 65.7s-20.6 21.6-20.9 6.4 8-80.9 18-100.6 8-27.9 9.8-29.8 12.5-26.1 20.9-28.4c0 0 19.9 17.1 20.1 24.1s-2.5 48.3-10 62.6zm-281.7 130l-1 1.2c-1.8 2.1-5.8 5.6-4.7-4.3 1.5-12.8 5.3-15.9 2.2-18.9s-6.6 3.8-6.6 3.8-3.7 3.4-3.8-3.7 4.4-5.3 4.2-11.8-8.2-3.8-8.1-1.1-7.4 6.7-3.9-4.9c2.7-8.6 2-5 3-10.7 1.7-9 .8-9.8-2-6.9s-1-18.6 1.5-25.3 5.2-31.3 4.9-41.3 10.2-39.3 10-48.6c-.2-5.1-1.6-9.8-2-14a8.9 8.9 0 0 0-12.3-7.5 16.3 16.3 0 0 0-3.4 1.9c-6.9 4.8-6.1 8.6-22.5 8.6a9.5 9.5 0 0 0-4.7 1.3c-4 2.3-12.1 6.4-10.4-.1 2.2-8.5 8.8-7.9 8.7-10.8s2.9-6.1-3.4-6-10 3-11.9 1.2 0-2.1-1.4-5.4-7.5 1.3-6.6-3.9.4-5.8 9.4-10.1 19-6.7 18.9-10.1 3.2 1 20.5-10.8 65.5-25.6 71-27.2l1.1-.3c3.6-.5 24.7-4 31.5-8.5s20.7-.7 20.8 2 2.3 6.3.2 8.4 8.8 5.8 8.9 9.3.9 7 3.8 6.9 2.6 8.2-5.2 8.4-2.8 2.9-5.2 5.4-14.5 7.1-20.3 7.2-9.2 5.4-18.5 7.2-14.4 3.7-14.3 7 3.4 5.7 3.5 9.7-5.9 19.6-5.8 24.5-5.6 16.6-5.4 26.1-3.7 18.4-5.6 32.9-5.1 43.4-4.9 54.3.2 5.4 1 12.1a33.5 33.5 0 0 1-.1 6.4 9.2 9.2 0 0 1-1.5 4c-1.6 2.4-3 6.6-5.6 5.3s1.8-6.1-3.2-3.1-5.5 18.9-5.5 18.9-1 13.6-5.7 13.7-9.2 2.8-10 8.1"/></svg>